<svg xmlns="http://www.w3.org/2000/svg" xmlns:xlink="http://www.w3.org/1999/xlink" version="1.1" x="0px" y="0px" viewBox="0 0 24 30" enable-background="new 0 0 24 24" xml:space="preserve"><g><path d="M21.235,19.3H2.765c-1.297,0-2.352-1.055-2.352-2.351V7.052c0-1.297,1.055-2.352,2.352-2.352h18.469   c1.297,0,2.352,1.055,2.352,2.352v9.896C23.586,18.245,22.531,19.3,21.235,19.3z M2.765,6c-0.58,0-1.052,0.472-1.052,1.052v9.896   c0,0.58,0.472,1.051,1.052,1.051h18.469c0.58,0,1.052-0.472,1.052-1.051V7.052c0-0.58-0.472-1.052-1.052-1.052H2.765z"/><path d="M19.68,17.468H4.32c-1.139,0-2.065-0.845-2.065-1.883v-7.17c0-1.038,0.926-1.883,2.065-1.883H19.68   c1.139,0,2.065,0.845,2.065,1.883v7.17C21.745,16.623,20.819,17.468,19.68,17.468z M4.32,7.832c-0.415,0-0.765,0.267-0.765,0.583   v7.17c0,0.316,0.351,0.583,0.765,0.583H19.68c0.415,0,0.765-0.267,0.765-0.583v-7.17c0-0.316-0.351-0.583-0.765-0.583H4.32z"/><g><g><g><path d="M15.261,12.258c-0.167,0-0.333-0.063-0.459-0.19l-1.282-1.282c-0.254-0.254-0.254-0.665,0-0.919l1.282-1.282      c0.254-0.254,0.665-0.254,0.919,0s0.254,0.665,0,0.919l-0.822,0.823l0.822,0.823c0.254,0.254,0.254,0.665,0,0.919      C15.594,12.195,15.428,12.258,15.261,12.258z"/><path d="M19.066,10.972H14.62c-0.359,0-0.65-0.291-0.65-0.65s0.291-0.65,0.65-0.65h4.445c0.359,0,0.65,0.291,0.65,0.65      S19.425,10.972,19.066,10.972z"/></g><path d="M12.725,12.258c-0.359,0-0.65-0.291-0.65-0.65V9.044c0-0.359,0.291-0.65,0.65-0.65s0.65,0.291,0.65,0.65v2.564     C13.375,11.967,13.084,12.258,12.725,12.258z"/></g><g><g><path d="M8.739,15.606c-0.167,0-0.333-0.063-0.459-0.19c-0.254-0.254-0.254-0.665,0-0.919l0.822-0.823l-0.822-0.823      c-0.254-0.254-0.254-0.665,0-0.919s0.665-0.254,0.919,0l1.282,1.282c0.254,0.254,0.254,0.665,0,0.919l-1.282,1.282      C9.071,15.543,8.905,15.606,8.739,15.606z"/><path d="M9.38,14.327H4.934c-0.359,0-0.65-0.291-0.65-0.65s0.291-0.65,0.65-0.65H9.38c0.359,0,0.65,0.291,0.65,0.65      S9.739,14.327,9.38,14.327z"/></g><path d="M11.275,15.606c-0.359,0-0.65-0.291-0.65-0.65v-2.564c0-0.359,0.291-0.65,0.65-0.65s0.65,0.291,0.65,0.65v2.564     C11.925,15.315,11.634,15.606,11.275,15.606z"/></g></g></g><text x="0" y="39" fill="#000000" font-size="5px" font-weight="bold" font-family="'Helvetica Neue', Helvetica, Arial-Unicode, Arial, Sans-serif">Created by Atif Arshad</text><text x="0" y="44" fill="#000000" font-size="5px" font-weight="bold" font-family="'Helvetica Neue', Helvetica, Arial-Unicode, Arial, Sans-serif">from the Noun Project</text></svg>