<svg xmlns="http://www.w3.org/2000/svg" xmlns:xlink="http://www.w3.org/1999/xlink" version="1.1" x="0px" y="0px" viewBox="0 0 100 125" style="enable-background:new 0 0 100 100;" xml:space="preserve"><g><path d="M83,5H17C10.4,5,5,10.4,5,17v66c0,6.6,5.4,12,12,12h66c6.6,0,12-5.4,12-12V17C95,10.4,89.6,5,83,5z M89,83c0,3.3-2.7,6-6,6   H17c-3.3,0-6-2.7-6-6V17c0-3.3,2.7-6,6-6h66c3.3,0,6,2.7,6,6V83z"/><path d="M77,35c-1.1,0-2,0.9-2,2v26c0,1.1,0.9,2,2,2s2-0.9,2-2V37C79,35.9,78.1,35,77,35z"/><path d="M53.4,35.6c-0.8-0.8-2-0.8-2.8,0c-0.8,0.8-0.8,2,0,2.8l9.6,9.6H22.5c-1.1,0-2,0.9-2,2s0.9,2,2,2h37.7l-9.6,9.6   c-0.8,0.8-0.8,2,0,2.8C51,64.8,51.5,65,52,65s1-0.2,1.4-0.6l13-13c0.8-0.8,0.8-2,0-2.8L53.4,35.6z"/></g><text x="0" y="115" fill="#000000" font-size="5px" font-weight="bold" font-family="'Helvetica Neue', Helvetica, Arial-Unicode, Arial, Sans-serif">Created by IconMark</text><text x="0" y="120" fill="#000000" font-size="5px" font-weight="bold" font-family="'Helvetica Neue', Helvetica, Arial-Unicode, Arial, Sans-serif">from the Noun Project</text></svg>